<svg width="1384" height="170" viewBox="0 0 1384 170" fill="none" xmlns="http://www.w3.org/2000/svg">
<path d="M1251.94 4.01807H1281.17V70.6232H1354.34V4.01807H1383.34V166H1354.34V95.0904H1281.17V166H1251.94V4.01807Z" fill="#131311"/>
<path d="M1171.29 169.398C1155.88 169.398 1142.44 165.773 1130.96 158.524C1119.49 151.274 1110.65 141.306 1104.46 128.62C1098.42 115.933 1095.4 101.434 1095.4 85.1223C1095.4 68.8108 1098.49 54.2363 1104.68 41.3985C1110.88 28.5608 1119.71 18.5927 1131.19 11.4942C1142.82 4.24464 1156.34 0.619873 1171.74 0.619873C1185.34 0.619873 1197.12 3.26293 1207.08 8.54905C1217.2 13.6841 1225.21 20.7827 1231.1 29.8446C1236.99 38.7555 1240.61 48.9501 1241.97 60.4286H1211.84C1210.63 54.0852 1208.59 48.346 1205.72 43.2109C1202.85 38.0758 1198.55 33.8469 1192.81 30.5242C1187.22 27.0505 1179.97 25.3136 1171.06 25.3136C1160.34 25.3136 1151.58 27.9567 1144.78 33.2428C1137.99 38.5289 1133 45.7029 1129.83 54.7649C1126.81 63.6758 1125.3 73.7194 1125.3 84.8958C1125.3 96.0721 1126.81 106.191 1129.83 115.253C1133 124.164 1137.99 131.338 1144.78 136.775C1151.58 142.061 1160.34 144.704 1171.06 144.704C1180.12 144.704 1187.6 142.968 1193.49 139.494C1199.38 136.02 1203.76 131.414 1206.63 125.674C1209.5 119.935 1211.24 113.592 1211.84 106.644H1241.97C1240.76 118.878 1237.21 129.752 1231.32 139.267C1225.43 148.782 1217.35 156.183 1207.08 161.469C1196.96 166.755 1185.03 169.398 1171.29 169.398Z" fill="#131311"/>
<path d="M1020.11 169.398C1005.15 169.398 992.92 167.057 983.404 162.375C973.889 157.542 966.866 150.746 962.336 141.986C957.956 133.075 955.766 122.427 955.766 110.043V4.01807H984.764V110.043C984.764 121.974 987.633 130.734 993.373 136.322C999.263 141.91 1008.17 144.704 1020.11 144.704C1032.19 144.704 1041.1 141.91 1046.84 136.322C1052.58 130.734 1055.45 121.974 1055.45 110.043V4.01807H1084.67V110.043C1084.67 128.922 1079.46 143.572 1069.04 153.993C1058.62 164.263 1042.31 169.398 1020.11 169.398Z" fill="#131311"/>
<ellipse cx="866" cy="85" rx="80" ry="84" fill="#AFAF9D"/>
<path d="M715.202 28.7118H664.228V4.01807H795.173V28.7118H744.426V166H715.202V28.7118Z" fill="#131311"/>
<path d="M496.236 4.01807H527.953L598.409 121.37H598.862V4.01807H628.087V166H596.37L525.687 48.648H525.461V166H496.236V4.01807Z" fill="#131311"/>
<path d="M447.608 4.01807H476.832V166H447.608V4.01807Z" fill="#131311"/>
<path d="M331.353 28.7118H280.38V4.01807H411.325V28.7118H360.578V166H331.353V28.7118Z" fill="#131311"/>
<path d="M164.998 4.01807H281.67V28.7118H194.223V70.1701H270.569V94.6373H194.223V141.306H283.936V166H164.998V4.01807Z" fill="#131311"/>
<path d="M74.1042 169.398C58.85 169.398 45.7102 165.773 34.6849 158.524C23.6595 151.274 15.2772 141.306 9.53803 128.62C3.79881 115.933 0.929199 101.358 0.929199 84.8958C0.929199 68.5843 4.02536 54.0852 10.2177 41.3985C16.41 28.5608 25.3209 18.5927 36.9503 11.4942C48.5798 4.24464 62.0972 0.619873 77.5025 0.619873C91.2464 0.619873 103.102 2.96087 113.071 7.64285C123.039 12.3249 130.892 18.7437 136.632 26.8995C142.371 35.0552 146.071 44.4192 147.732 54.9914H117.828C115.714 45.4764 111.258 38.1513 104.462 33.0163C97.8163 27.8812 88.7543 25.3136 77.2759 25.3136C66.7037 25.3136 57.9438 28.1077 50.9963 33.6959C44.0489 39.133 38.9893 46.3826 35.8176 55.4445C32.6459 64.3554 31.0601 74.1725 31.0601 84.8958C31.0601 96.0721 32.4194 106.116 35.138 115.027C38.0076 123.938 42.8406 131.112 49.637 136.549C56.4335 141.986 65.4199 144.704 76.5963 144.704C84.752 144.704 92.1526 142.968 98.798 139.494C105.443 136.02 110.73 131.187 114.656 124.995C118.583 118.802 120.622 111.779 120.773 103.926H77.2759V81.0444H150.451V166H130.062L124.398 144.025H123.945C118.659 152.332 111.938 158.675 103.782 163.055C95.7773 167.284 85.8847 169.398 74.1042 169.398Z" fill="#131311"/>
</svg>
